<svg width="73" height="61" viewBox="0 0 73 61" fill="none" xmlns="http://www.w3.org/2000/svg">
<path id="path1" d="M4.104 23.664L3.68783 24.5734L3.70074 24.5791L4.104 23.664ZM1.872 21.84L1.04504 22.4023L1.05041 22.4101L1.872 21.84ZM1.032 18.936V17.936H0.0178163L0.0320992 18.9501L1.032 18.936ZM4.272 18.936L5.27117 18.8952L5.23202 17.936H4.272V18.936ZM5.112 20.928L4.39442 21.6245L4.40481 21.6352L4.41552 21.6456L5.112 20.928ZM9.288 21.144L9.9127 21.9249L9.9205 21.9186L9.92819 21.9122L9.288 21.144ZM9.36 17.952L8.68172 18.6868L8.68862 18.6932L8.69564 18.6994L9.36 17.952ZM7.68 17.016L7.35733 17.9625L7.35733 17.9625L7.68 17.016ZM5.424 16.248L5.09729 17.1931L5.1021 17.1948L5.424 16.248ZM2.448 14.52L1.72459 15.2105L1.73281 15.2189L2.448 14.52ZM1.44 11.712H2.44V11.7039L2.43987 11.6959L1.44 11.712ZM2.136 9.168L1.31248 8.60069L1.30977 8.60466L2.136 9.168ZM4.152 7.512L4.56451 8.42295L4.57159 8.41975L4.57862 8.41643L4.152 7.512ZM10.032 7.512L9.60537 8.41645L9.61188 8.41947L10.032 7.512ZM12.048 9.192L11.216 9.7467L11.2202 9.75303L11.2245 9.7593L12.048 9.192ZM12.84 11.76V12.76H13.8728L13.8395 11.7278L12.84 11.76ZM9.552 11.76L8.55237 11.787L8.57866 12.76H9.552V11.76ZM8.856 10.2L8.12411 10.8814L8.13627 10.8945L8.14889 10.9071L8.856 10.2ZM7.032 9.504L7.0082 10.5037L7.0201 10.504H7.032V9.504ZM5.328 10.008L5.92801 10.808L5.93239 10.8047L5.328 10.008ZM5.184 12.84L4.49352 13.5634L4.50232 13.5718L4.51133 13.5799L5.184 12.84ZM6.624 13.656L6.96971 12.7177L6.96971 12.7177L6.624 13.656ZM8.712 14.376L9.03911 13.431L9.03078 13.4281L9.0224 13.4254L8.712 14.376ZM10.992 15.384L11.4794 14.5108L11.4794 14.5108L10.992 15.384ZM12.648 16.92L11.8095 17.465L11.816 17.4747L12.648 16.92ZM12.6 21.792L13.4591 22.3038L13.4591 22.3038L12.6 21.792ZM10.608 23.616L11.0617 24.5072L11.0681 24.5039L11.0744 24.5006L10.608 23.616ZM7.368 23.288C6.24834 23.288 5.30198 23.0991 4.50726 22.7489L3.70074 24.5791C4.79402 25.0609 6.02366 25.288 7.368 25.288V23.288ZM4.52012 22.7547C3.72445 22.3906 3.12641 21.8937 2.69359 21.2699L1.05041 22.4101C1.70559 23.3543 2.59555 24.0734 3.68788 24.5733L4.52012 22.7547ZM2.69893 21.2777C2.28308 20.6661 2.04563 19.897 2.0319 18.9219L0.0320992 18.9501C0.0503655 20.247 0.372924 21.4139 1.04507 22.4023L2.69893 21.2777ZM1.032 19.936H4.272V17.936H1.032V19.936ZM3.27283 18.9768C3.31448 19.9971 3.68864 20.8973 4.39442 21.6245L5.82958 20.2315C5.47936 19.8707 5.29352 19.4429 5.27117 18.8952L3.27283 18.9768ZM4.41552 21.6456C5.18932 22.3966 6.20708 22.72 7.344 22.72V20.72C6.59292 20.72 6.12268 20.5154 5.80848 20.2104L4.41552 21.6456ZM7.344 22.72C8.31252 22.72 9.20482 22.4912 9.9127 21.9249L8.66331 20.3631C8.41118 20.5648 8.00748 20.72 7.344 20.72V22.72ZM9.92819 21.9122C10.6489 21.3116 11.008 20.4958 11.008 19.56H9.008C9.008 19.9362 8.88708 20.1764 8.64782 20.3758L9.92819 21.9122ZM11.008 19.56C11.008 18.6458 10.7106 17.8146 10.0244 17.2046L8.69564 18.6994C8.8734 18.8574 9.008 19.0982 9.008 19.56H11.008ZM10.0383 17.2172C9.49304 16.7139 8.79918 16.341 8.00267 16.0695L7.35733 17.9625C7.96882 18.171 8.39496 18.4221 8.68172 18.6868L10.0383 17.2172ZM8.00267 16.0695C7.29839 15.8294 6.54613 15.5733 5.7459 15.3012L5.1021 17.1948C5.90187 17.4667 6.65362 17.7226 7.35733 17.9625L8.00267 16.0695ZM5.75071 15.3029C4.54723 14.8869 3.7085 14.3791 3.16319 13.8211L1.73281 15.2189C2.56351 16.0689 3.70877 16.7131 5.09729 17.1931L5.75071 15.3029ZM3.17136 13.8295C2.7114 13.3477 2.44 12.6775 2.44 11.712H0.44C0.44 13.0825 0.840599 14.2843 1.72464 15.2105L3.17136 13.8295ZM2.43987 11.6959C2.42664 10.8753 2.61681 10.238 2.96223 9.73134L1.30977 8.60466C0.695192 9.50605 0.421364 10.5647 0.44013 11.7281L2.43987 11.6959ZM2.95951 9.7353C3.34558 9.17488 3.87106 8.73697 4.56451 8.42295L3.73949 6.60104C2.73695 7.05503 1.91842 7.72112 1.31249 8.60069L2.95951 9.7353ZM4.57862 8.41643C5.27156 8.08957 6.09756 7.912 7.08 7.912V5.912C5.85444 5.912 4.72844 6.13443 3.72538 6.60757L4.57862 8.41643ZM7.08 7.912C8.08082 7.912 8.91425 8.09042 9.60538 8.41643L10.4586 6.60757C9.45375 6.13358 8.31918 5.912 7.08 5.912V7.912ZM9.61188 8.41947C10.326 8.75008 10.8482 9.19512 11.216 9.7467L12.8801 8.6373C12.2878 7.74888 11.466 7.07392 10.4521 6.60453L9.61188 8.41947ZM11.2245 9.7593C11.5976 10.3009 11.8138 10.9651 11.8405 11.7922L13.8395 11.7278C13.8022 10.5709 13.4904 9.52309 12.8715 8.62469L11.2245 9.7593ZM12.84 10.76H9.552V12.76H12.84V10.76ZM10.5516 11.733C10.5282 10.8662 10.1782 10.1079 9.56311 9.49289L8.14889 10.9071C8.42984 11.1881 8.54379 11.4697 8.55237 11.787L10.5516 11.733ZM9.58789 9.51858C8.92355 8.80502 8.02317 8.504 7.032 8.504V10.504C7.60883 10.504 7.92445 10.667 8.12411 10.8814L9.58789 9.51858ZM7.0558 8.50428C6.19405 8.48376 5.39513 8.70188 4.72361 9.21131L5.93239 10.8047C6.18887 10.6101 6.52595 10.4922 7.0082 10.5037L7.0558 8.50428ZM4.728 9.208C3.98301 9.76674 3.656 10.5864 3.656 11.496H5.656C5.656 11.0936 5.77699 10.9213 5.928 10.808L4.728 9.208ZM3.656 11.496C3.656 12.2843 3.91349 13.0097 4.49352 13.5634L5.87448 12.1166C5.75051 11.9983 5.656 11.8277 5.656 11.496H3.656ZM4.51133 13.5799C4.98624 14.0117 5.59052 14.341 6.2783 14.5943L6.96971 12.7177C6.44148 12.523 6.08576 12.3083 5.85667 12.1001L4.51133 13.5799ZM6.2783 14.5943C6.90062 14.8236 7.60877 15.0677 8.4016 15.3266L9.0224 13.4254C8.24723 13.1723 7.56338 12.9364 6.96971 12.7177L6.2783 14.5943ZM8.38489 15.321C9.16782 15.592 9.8734 15.9049 10.5046 16.2572L11.4794 14.5108C10.7346 14.0951 9.92018 13.736 9.03911 13.431L8.38489 15.321ZM10.5046 16.2572C11.0554 16.5646 11.4851 16.9658 11.8096 17.465L13.4864 16.375C12.9789 15.5942 12.3046 14.9714 11.4794 14.5108L10.5046 16.2572ZM11.816 17.4747C12.0922 17.8891 12.272 18.4868 12.272 19.344H14.272C14.272 18.2172 14.0358 17.1989 13.4801 16.3653L11.816 17.4747ZM12.272 19.344C12.272 20.0448 12.0962 20.6839 11.7409 21.2802L13.4591 22.3038C13.9998 21.3961 14.272 20.4032 14.272 19.344H12.272ZM11.7409 21.2802C11.3994 21.8535 10.8816 22.3412 10.1416 22.7314L11.0744 24.5006C12.0944 23.9628 12.9046 23.2345 13.4591 22.3038L11.7409 21.2802ZM10.1543 22.7248C9.45021 23.0833 8.53546 23.288 7.368 23.288V25.288C8.76054 25.288 10.0058 25.0447 11.0617 24.5072L10.1543 22.7248ZM15.2323 24H14.2323V25H15.2323V24ZM15.2323 7.2V6.2H14.2323V7.2H15.2323ZM18.3043 7.2H19.3043V6.2H18.3043V7.2ZM18.3043 14.184H17.3043V15.184H18.3043V14.184ZM25.8403 14.184V15.184H26.8403V14.184H25.8403ZM25.8403 7.2V6.2H24.8403V7.2H25.8403ZM28.9123 7.2H29.9123V6.2H28.9123V7.2ZM28.9123 24V25H29.9123V24H28.9123ZM25.8403 24H24.8403V25H25.8403V24ZM25.8403 16.68H26.8403V15.68H25.8403V16.68ZM18.3043 16.68V15.68H17.3043V16.68H18.3043ZM18.3043 24V25H19.3043V24H18.3043ZM16.2323 24V7.2H14.2323V24H16.2323ZM15.2323 8.2H18.3043V6.2H15.2323V8.2ZM17.3043 7.2V14.184H19.3043V7.2H17.3043ZM18.3043 15.184H25.8403V13.184H18.3043V15.184ZM26.8403 14.184V7.2H24.8403V14.184H26.8403ZM25.8403 8.2H28.9123V6.2H25.8403V8.2ZM27.9123 7.2V24H29.9123V7.2H27.9123ZM28.9123 23H25.8403V25H28.9123V23ZM26.8403 24V16.68H24.8403V24H26.8403ZM25.8403 15.68H18.3043V17.68H25.8403V15.68ZM17.3043 16.68V24H19.3043V16.68H17.3043ZM18.3043 23H15.2323V25H18.3043V23ZM34.9136 23.184L34.4056 24.0454L34.4104 24.0482L34.9136 23.184ZM31.9616 20.136L31.0805 20.6088L31.0839 20.6153L31.0875 20.6216L31.9616 20.136ZM31.9616 11.088L31.0849 10.6069L31.0829 10.6107L31.9616 11.088ZM34.9136 8.016L34.4104 7.15181L34.4056 7.15463L34.9136 8.016ZM43.7216 8.016L44.2248 7.15182L44.2248 7.15182L43.7216 8.016ZM46.6736 11.088L45.7925 11.5608L45.7949 11.5653L46.6736 11.088ZM46.6736 20.136L47.5524 20.6133L47.5548 20.6088L46.6736 20.136ZM43.7216 23.184L44.2248 24.0482L44.2248 24.0482L43.7216 23.184ZM43.1456 19.944L42.4057 19.2713L42.4001 19.2775L43.1456 19.944ZM43.1456 11.256L42.4001 11.9225L42.4057 11.9287L43.1456 11.256ZM35.4896 11.256L36.2296 11.9287L36.2296 11.9287L35.4896 11.256ZM35.4896 19.944L36.2296 19.2713L36.2296 19.2713L35.4896 19.944ZM39.3296 23.288C37.7997 23.288 36.5065 22.9543 35.4168 22.3198L34.4104 24.0482C35.8487 24.8857 37.4995 25.288 39.3296 25.288V23.288ZM35.4216 22.3226C34.3306 21.6792 33.4714 20.7946 32.8358 19.6504L31.0875 20.6216C31.8918 22.0694 33.0006 23.2168 34.4056 24.0454L35.4216 22.3226ZM32.8428 19.6632C32.2278 18.517 31.9056 17.1719 31.9056 15.6H29.9056C29.9056 17.4521 30.2875 19.131 31.0805 20.6088L32.8428 19.6632ZM31.9056 15.6C31.9056 14.0278 32.2279 12.6928 32.8403 11.5653L31.0829 10.6107C30.2874 12.0752 29.9056 13.7482 29.9056 15.6H31.9056ZM32.8383 11.5691C33.4748 10.4093 34.3337 9.51895 35.4216 8.87737L34.4056 7.15463C32.9975 7.98505 31.8885 9.14275 31.085 10.6069L32.8383 11.5691ZM35.4168 8.88018C36.5065 8.24565 37.7997 7.912 39.3296 7.912V5.912C37.4995 5.912 35.8487 6.31434 34.4104 7.15182L35.4168 8.88018ZM39.3296 7.912C40.8416 7.912 42.1273 8.24482 43.2184 8.88018L44.2248 7.15182C42.788 6.31518 41.1456 5.912 39.3296 5.912V7.912ZM43.2184 8.88018C44.3197 9.52142 45.1742 10.4086 45.7925 11.5608L47.5548 10.6152C46.765 9.14339 45.6516 7.98258 44.2248 7.15182L43.2184 8.88018ZM45.7949 11.5653C46.4074 12.6928 46.7296 14.0278 46.7296 15.6H48.7296C48.7296 13.7482 48.3479 12.0752 47.5523 10.6107L45.7949 11.5653ZM46.7296 15.6C46.7296 17.1719 46.4075 18.517 45.7925 19.6632L47.5548 20.6088C48.3478 19.131 48.7296 17.4521 48.7296 15.6H46.7296ZM45.7949 19.6587C45.1775 20.7952 44.3228 21.6768 43.2184 22.3198L44.2248 24.0482C45.6484 23.2192 46.7617 22.0688 47.5523 20.6133L45.7949 19.6587ZM43.2184 22.3198C42.1273 22.9552 40.8416 23.288 39.3296 23.288V25.288C41.1456 25.288 42.788 24.8848 44.2248 24.0482L43.2184 22.3198ZM39.3296 22.528C41.1733 22.528 42.7318 21.9074 43.8912 20.6105L42.4001 19.2775C41.6715 20.0926 40.6859 20.528 39.3296 20.528V22.528ZM43.8856 20.6167C45.0569 19.3282 45.5856 17.6146 45.5856 15.6H43.5856C43.5856 17.2654 43.1544 18.4478 42.4057 19.2713L43.8856 20.6167ZM45.5856 15.6C45.5856 13.5854 45.0569 11.8718 43.8856 10.5833L42.4057 11.9287C43.1544 12.7522 43.5856 13.9346 43.5856 15.6H45.5856ZM43.8912 10.5895C42.7318 9.29258 41.1733 8.672 39.3296 8.672V10.672C40.6859 10.672 41.6715 11.1074 42.4001 11.9225L43.8912 10.5895ZM39.3296 8.672C37.4857 8.672 35.9233 9.29239 34.7497 10.5833L36.2296 11.9287C36.976 11.1076 37.9735 10.672 39.3296 10.672V8.672ZM34.7497 10.5833C33.5784 11.8718 33.0496 13.5854 33.0496 15.6H35.0496C35.0496 13.9346 35.4809 12.7522 36.2296 11.9287L34.7497 10.5833ZM33.0496 15.6C33.0496 17.6146 33.5784 19.3282 34.7497 20.6167L36.2296 19.2713C35.4809 18.4478 35.0496 17.2654 35.0496 15.6H33.0496ZM34.7497 20.6167C35.9233 21.9076 37.4857 22.528 39.3296 22.528V20.528C37.9735 20.528 36.976 20.0924 36.2296 19.2713L34.7497 20.6167ZM52.4034 24L51.4366 24.2555L51.6334 25H52.4034V24ZM47.9634 7.2V6.2H46.6648L46.9966 7.45551L47.9634 7.2ZM51.2514 7.2L52.2268 6.97936L52.0505 6.2H51.2514V7.2ZM54.2754 20.568L53.3001 20.7886L55.2419 20.8248L54.2754 20.568ZM57.8274 7.2V6.2H57.0584L56.861 6.9432L57.8274 7.2ZM61.2114 7.2L62.1796 6.9497L61.9858 6.2H61.2114V7.2ZM64.6674 20.568L63.6993 20.8183L65.6428 20.7886L64.6674 20.568ZM67.6914 7.2V6.2H66.8924L66.7161 6.97936L67.6914 7.2ZM71.0034 7.2L71.9685 7.46195L72.3111 6.2H71.0034V7.2ZM66.4434 24V25H67.2082L67.4085 24.262L66.4434 24ZM62.7954 24L61.8295 24.2587L62.028 25H62.7954V24ZM59.4594 11.544L60.4254 11.2853L59.4731 7.7297L58.4954 11.2784L59.4594 11.544ZM56.0274 24V25H56.7892L56.9915 24.2656L56.0274 24ZM53.3702 23.7445L48.9302 6.94449L46.9966 7.45551L51.4366 24.2555L53.3702 23.7445ZM47.9634 8.2H51.2514V6.2H47.9634V8.2ZM50.2761 7.42064L53.3001 20.7886L55.2508 20.3474L52.2268 6.97936L50.2761 7.42064ZM55.2419 20.8248L58.7939 7.4568L56.861 6.9432L53.309 20.3112L55.2419 20.8248ZM57.8274 8.2H61.2114V6.2H57.8274V8.2ZM60.2433 7.4503L63.6993 20.8183L65.6356 20.3177L62.1796 6.9497L60.2433 7.4503ZM65.6428 20.7886L68.6668 7.42064L66.7161 6.97936L63.6921 20.3474L65.6428 20.7886ZM67.6914 8.2H71.0034V6.2H67.6914V8.2ZM70.0384 6.93805L65.4784 23.738L67.4085 24.262L71.9685 7.46195L70.0384 6.93805ZM66.4434 23H62.7954V25H66.4434V23ZM63.7614 23.7413L60.4254 11.2853L58.4935 11.8027L61.8295 24.2587L63.7614 23.7413ZM58.4954 11.2784L55.0634 23.7344L56.9915 24.2656L60.4235 11.8096L58.4954 11.2784ZM56.0274 23H52.4034V25H56.0274V23Z" />
<rect id="line" y="30" width="73" height="1"/>
<path id="path2" d="M7.368 54.288C6.136 54.288 5.048 54.08 4.104 53.664C3.16 53.232 2.416 52.624 1.872 51.84C1.328 51.04 1.048 50.072 1.032 48.936H4.272C4.304 49.72 4.584 50.384 5.112 50.928C5.656 51.456 6.4 51.72 7.344 51.72C8.16 51.72 8.808 51.528 9.288 51.144C9.768 50.744 10.008 50.216 10.008 49.56C10.008 48.872 9.792 48.336 9.36 47.952C8.944 47.568 8.384 47.256 7.68 47.016C6.976 46.776 6.224 46.52 5.424 46.248C4.128 45.8 3.136 45.224 2.448 44.52C1.776 43.816 1.44 42.88 1.44 41.712C1.424 40.72 1.656 39.872 2.136 39.168C2.632 38.448 3.304 37.896 4.152 37.512C5 37.112 5.976 36.912 7.08 36.912C8.2 36.912 9.184 37.112 10.032 37.512C10.896 37.912 11.568 38.472 12.048 39.192C12.544 39.912 12.808 40.768 12.84 41.76H9.552C9.536 41.168 9.304 40.648 8.856 40.2C8.424 39.736 7.816 39.504 7.032 39.504C6.36 39.488 5.792 39.656 5.328 40.008C4.88 40.344 4.656 40.84 4.656 41.496C4.656 42.056 4.832 42.504 5.184 42.84C5.536 43.16 6.016 43.432 6.624 43.656C7.232 43.88 7.928 44.12 8.712 44.376C9.544 44.664 10.304 45 10.992 45.384C11.68 45.768 12.232 46.28 12.648 46.92C13.064 47.544 13.272 48.352 13.272 49.344C13.272 50.224 13.048 51.04 12.6 51.792C12.152 52.544 11.488 53.152 10.608 53.616C9.728 54.064 8.648 54.288 7.368 54.288ZM18.9334 54V39.672H14.0374V37.2H26.9254V39.672H22.0054V54H18.9334ZM35.7437 54.288C34.0637 54.288 32.5917 53.92 31.3277 53.184C30.0797 52.448 29.0957 51.432 28.3757 50.136C27.6717 48.824 27.3197 47.312 27.3197 45.6C27.3197 43.888 27.6717 42.384 28.3757 41.088C29.0957 39.776 30.0797 38.752 31.3277 38.016C32.5917 37.28 34.0637 36.912 35.7437 36.912C37.4077 36.912 38.8717 37.28 40.1357 38.016C41.3997 38.752 42.3837 39.776 43.0877 41.088C43.7917 42.384 44.1437 43.888 44.1437 45.6C44.1437 47.312 43.7917 48.824 43.0877 50.136C42.3837 51.432 41.3997 52.448 40.1357 53.184C38.8717 53.92 37.4077 54.288 35.7437 54.288ZM35.7437 51.528C37.3437 51.528 38.6157 51 39.5597 49.944C40.5197 48.888 40.9997 47.44 40.9997 45.6C40.9997 43.76 40.5197 42.312 39.5597 41.256C38.6157 40.2 37.3437 39.672 35.7437 39.672C34.1437 39.672 32.8637 40.2 31.9037 41.256C30.9437 42.312 30.4637 43.76 30.4637 45.6C30.4637 47.44 30.9437 48.888 31.9037 49.944C32.8637 51 34.1437 51.528 35.7437 51.528ZM46.1361 54V37.2H52.3041C53.6481 37.2 54.7521 37.432 55.6161 37.896C56.4961 38.344 57.1521 38.96 57.5841 39.744C58.0161 40.512 58.2321 41.368 58.2321 42.312C58.2321 43.336 57.9601 44.272 57.4161 45.12C56.8881 45.968 56.0561 46.584 54.9201 46.968L58.4001 54H54.8721L51.7521 47.376H49.2081V54H46.1361ZM49.2081 45.12H52.1121C53.1361 45.12 53.8881 44.872 54.3681 44.376C54.8481 43.88 55.0881 43.224 55.0881 42.408C55.0881 41.608 54.8481 40.968 54.3681 40.488C53.9041 40.008 53.1441 39.768 52.0881 39.768H49.2081V45.12ZM60.3692 54V37.2H71.3372V39.672H63.4412V44.28H70.6172V46.68H63.4412V51.528H71.3372V54H60.3692Z"/>
  <style>
    #path1 {
      fill: black;
    }

    #line {
      fill: black;
    }

    #path2 {
      fill: black;
    }

    @media (prefers-color-scheme: dark) {
      #path1 {
        fill: white;
      }

      #line {
        fill: white;
      }

      #path2 {
        fill: white;
      }
    }
  </style>
</svg>
