<svg width="128" height="35" viewBox="0 0 128 35" fill="none" xmlns="http://www.w3.org/2000/svg">
<path d="M0.448 26V0.799998H5.056V22.4H16.216V26H0.448ZM26.8475 26.432C25.1195 26.432 23.5595 26.036 22.1675 25.244C20.7995 24.452 19.7075 23.36 18.8915 21.968C18.0995 20.552 17.7035 18.92 17.7035 17.072C17.7035 15.224 18.1115 13.604 18.9275 12.212C19.7435 10.796 20.8355 9.692 22.2035 8.9C23.5955 8.108 25.1555 7.712 26.8835 7.712C28.5875 7.712 30.1235 8.108 31.4915 8.9C32.8835 9.692 33.9755 10.796 34.7675 12.212C35.5835 13.604 35.9915 15.224 35.9915 17.072C35.9915 18.92 35.5835 20.552 34.7675 21.968C33.9755 23.36 32.8835 24.452 31.4915 25.244C30.0995 26.036 28.5515 26.432 26.8475 26.432ZM26.8475 22.436C28.0475 22.436 29.0915 21.992 29.9795 21.104C30.8675 20.192 31.3115 18.848 31.3115 17.072C31.3115 15.296 30.8675 13.964 29.9795 13.076C29.0915 12.164 28.0595 11.708 26.8835 11.708C25.6595 11.708 24.6035 12.164 23.7155 13.076C22.8515 13.964 22.4195 15.296 22.4195 17.072C22.4195 18.848 22.8515 20.192 23.7155 21.104C24.6035 21.992 25.6475 22.436 26.8475 22.436ZM45.1876 26.432C43.6516 26.432 42.3916 26.192 41.4076 25.712C40.4236 25.208 39.6916 24.548 39.2116 23.732C38.7316 22.916 38.4916 22.016 38.4916 21.032C38.4916 19.376 39.1396 18.032 40.4356 17C41.7316 15.968 43.6756 15.452 46.2676 15.452H50.8036V15.02C50.8036 13.796 50.4556 12.896 49.7596 12.32C49.0636 11.744 48.1996 11.456 47.1676 11.456C46.2316 11.456 45.4156 11.684 44.7196 12.14C44.0236 12.572 43.5916 13.22 43.4236 14.084H38.9236C39.0436 12.788 39.4756 11.66 40.2196 10.7C40.9876 9.74 41.9716 9.008 43.1716 8.504C44.3716 7.976 45.7156 7.712 47.2036 7.712C49.7476 7.712 51.7516 8.348 53.2156 9.62C54.6796 10.892 55.4116 12.692 55.4116 15.02V26H51.4876L51.0556 23.12C50.5276 24.08 49.7836 24.872 48.8236 25.496C47.8876 26.12 46.6756 26.432 45.1876 26.432ZM46.2316 22.832C47.5516 22.832 48.5716 22.4 49.2916 21.536C50.0356 20.672 50.5036 19.604 50.6956 18.332H46.7716C45.5476 18.332 44.6716 18.56 44.1436 19.016C43.6156 19.448 43.3516 19.988 43.3516 20.636C43.3516 21.332 43.6156 21.872 44.1436 22.256C44.6716 22.64 45.3676 22.832 46.2316 22.832ZM66.9369 26.432C65.2569 26.432 63.7569 26.024 62.4369 25.208C61.1169 24.392 60.0729 23.276 59.3049 21.86C58.5369 20.444 58.1529 18.836 58.1529 17.036C58.1529 15.236 58.5369 13.64 59.3049 12.248C60.0729 10.832 61.1169 9.728 62.4369 8.936C63.7569 8.12 65.2569 7.712 66.9369 7.712C68.2809 7.712 69.4569 7.964 70.4649 8.468C71.4729 8.972 72.2889 9.68 72.9129 10.592V0.079999H77.5209V26H73.4169L72.9129 23.444C72.3369 24.236 71.5689 24.932 70.6089 25.532C69.6729 26.132 68.4489 26.432 66.9369 26.432ZM67.9089 22.4C69.3969 22.4 70.6089 21.908 71.5449 20.924C72.5049 19.916 72.9849 18.632 72.9849 17.072C72.9849 15.512 72.5049 14.24 71.5449 13.256C70.6089 12.248 69.3969 11.744 67.9089 11.744C66.4449 11.744 65.2329 12.236 64.2729 13.22C63.3129 14.204 62.8329 15.476 62.8329 17.036C62.8329 18.596 63.3129 19.88 64.2729 20.888C65.2329 21.896 66.4449 22.4 67.9089 22.4ZM83.6173 5.372C82.7773 5.372 82.0813 5.12 81.5293 4.616C81.0013 4.112 80.7373 3.476 80.7373 2.708C80.7373 1.94 81.0013 1.316 81.5293 0.835998C82.0813 0.331999 82.7773 0.079999 83.6173 0.079999C84.4573 0.079999 85.1413 0.331999 85.6693 0.835998C86.2213 1.316 86.4973 1.94 86.4973 2.708C86.4973 3.476 86.2213 4.112 85.6693 4.616C85.1413 5.12 84.4573 5.372 83.6173 5.372ZM81.3133 26V8.144H85.9213V26H81.3133ZM89.6509 26V8.144H93.7189L94.0789 11.168C94.6309 10.112 95.4229 9.272 96.4549 8.648C97.5109 8.024 98.7469 7.712 100.163 7.712C102.371 7.712 104.087 8.408 105.311 9.8C106.535 11.192 107.147 13.232 107.147 15.92V26H102.539V16.352C102.539 14.816 102.227 13.64 101.603 12.824C100.979 12.008 100.007 11.6 98.6869 11.6C97.3909 11.6 96.3229 12.056 95.4829 12.968C94.6669 13.88 94.2589 15.152 94.2589 16.784V26H89.6509ZM118.033 20.672C117.169 20.672 116.365 20.576 115.621 20.384L114.289 21.716C114.697 21.932 115.249 22.112 115.945 22.256C116.641 22.4 117.769 22.544 119.329 22.688C121.705 22.904 123.433 23.468 124.513 24.38C125.593 25.292 126.133 26.552 126.133 28.16C126.133 29.216 125.845 30.212 125.269 31.148C124.693 32.108 123.805 32.876 122.605 33.452C121.405 34.052 119.869 34.352 117.997 34.352C115.453 34.352 113.401 33.872 111.841 32.912C110.281 31.976 109.501 30.56 109.501 28.664C109.501 27.056 110.281 25.664 111.841 24.488C111.361 24.272 110.941 24.044 110.581 23.804C110.245 23.564 109.945 23.312 109.681 23.048V22.22L112.813 18.908C111.421 17.684 110.725 16.112 110.725 14.192C110.725 12.992 111.013 11.9 111.589 10.916C112.189 9.932 113.029 9.152 114.109 8.576C115.189 8 116.497 7.712 118.033 7.712C119.041 7.712 119.977 7.856 120.841 8.144H127.609V10.952L124.549 11.168C125.029 12.08 125.269 13.088 125.269 14.192C125.269 15.392 124.981 16.484 124.405 17.468C123.829 18.452 122.989 19.232 121.885 19.808C120.805 20.384 119.521 20.672 118.033 20.672ZM118.033 17.144C118.969 17.144 119.737 16.892 120.337 16.388C120.961 15.884 121.273 15.164 121.273 14.228C121.273 13.292 120.961 12.572 120.337 12.068C119.737 11.564 118.969 11.312 118.033 11.312C117.049 11.312 116.257 11.564 115.657 12.068C115.057 12.572 114.757 13.292 114.757 14.228C114.757 15.164 115.057 15.884 115.657 16.388C116.257 16.892 117.049 17.144 118.033 17.144ZM113.713 28.196C113.713 29.084 114.121 29.744 114.937 30.176C115.777 30.632 116.797 30.86 117.997 30.86C119.149 30.86 120.085 30.62 120.805 30.14C121.525 29.684 121.885 29.06 121.885 28.268C121.885 27.62 121.645 27.08 121.165 26.648C120.709 26.216 119.785 25.952 118.393 25.856C117.409 25.784 116.497 25.676 115.657 25.532C114.961 25.916 114.457 26.336 114.145 26.792C113.857 27.248 113.713 27.716 113.713 28.196Z" fill="black"/>
</svg>
