<svg width="87" height="111" viewBox="0 0 87 111" fill="none" xmlns="http://www.w3.org/2000/svg">
<path d="M2 57.4026C1.99999 45.7932 2.64497 22.5739 40.0533 22.5739C77.4615 22.5739 80.0414 47.728 79.3965 57.4026C78.9798 63.6519 76.8406 82.3464 59.0579 108.558C58.8724 108.832 58.5595 109 58.2291 109H23.6786C23.4249 109 23.1877 108.911 23.0044 108.736C16.2199 102.244 2.00003 83.4801 2 57.4026Z" fill="white" stroke="black" stroke-width="4"/>
<path d="M33.687 69.6873L37.6403 55.8507C37.9127 54.8976 38.857 54.3006 39.8348 54.4636C40.9826 54.6549 41.7081 55.8028 41.3885 56.9216L38.8468 65.8174C38.4818 67.0951 39.4411 68.3669 40.7698 68.3669H45.2131C46.2817 68.3669 47.148 69.2332 47.148 70.3018C47.148 71.3704 46.2817 72.2367 45.2131 72.2367H35.6101C34.2813 72.2367 33.322 70.9649 33.687 69.6873Z" fill="black" stroke="black"/>
<circle cx="21.3491" cy="46.4379" r="7.73965" fill="black"/>
<circle cx="21.3491" cy="46.4379" r="7.73965" fill="black"/>
<circle cx="21.3491" cy="46.4378" r="4.67574" fill="black" stroke="white" stroke-width="2"/>
<circle cx="61.3373" cy="46.4379" r="7.73965" fill="black"/>
<circle cx="61.3373" cy="46.4379" r="7.73965" fill="black"/>
<circle cx="61.3372" cy="46.4378" r="4.67574" fill="black" stroke="white" stroke-width="2"/>
<path d="M36.1835 89.651C34.5711 89.3964 28.8739 86.8561 26.509 85.1362C25.9587 84.7694 25.2146 84.8835 24.7912 85.3915C24.3209 85.9559 24.3975 86.8074 24.9809 87.2538C31.7762 92.4539 37.547 93.9493 43.9232 92.2309C47.0816 91.3796 50.7513 89.999 54.2495 87.4303C54.9363 86.9259 54.9427 85.9204 54.2957 85.3658C53.7282 84.8794 52.8773 84.9387 52.2985 85.4116C48.8366 88.2397 41.7201 90.5252 36.1835 89.651Z" stroke="black" stroke-width="3"/>
<path d="M56.1822 20.2684L66.5068 12.1535C68.0166 10.9673 69.8321 10.2509 71.7331 10.0951L80.5517 9.3556C80.7313 9.34138 80.9116 9.37964 81.0679 9.46296C81.5258 9.70127 81.6971 10.2729 81.4496 10.7372L81.4111 10.8093C81.3487 10.9265 81.2663 11.0272 81.1684 11.114L74.9132 16.4149C74.7154 16.5815 74.5551 16.7854 74.4349 17.0108C74.3028 17.2586 74.2242 17.5351 74.2 17.8173L73.3304 29.4099L64.082 24.4797L65.4595 23.1651L67.588 23.5184C67.9311 23.574 68.2742 23.4038 68.44 23.0929C68.6057 22.7819 68.5558 22.4022 68.3184 22.1483L66.8386 20.5781L67.2064 18.4359C67.262 18.095 67.0953 17.7515 66.7871 17.5872C66.479 17.423 66.1009 17.4761 65.8465 17.7167L64.2729 19.2161L62.1444 18.8628C61.8013 18.8072 61.4583 18.9774 61.2925 19.2884C61.1267 19.5994 61.1766 19.979 61.414 20.2329L62.8938 21.8032L62.5726 23.6751L56.1822 20.2684ZM72.4055 13.0292C72.4357 12.8543 72.3546 12.6837 72.1983 12.6004C72.042 12.517 71.8552 12.5448 71.7268 12.6673L70.9422 13.4182L69.8792 13.2393C69.7054 13.2103 69.535 13.2932 69.451 13.4509C69.3669 13.6087 69.393 13.7963 69.514 13.9244L70.2551 14.7073L70.0689 15.7772C70.0388 15.9521 70.1199 16.1227 70.2762 16.206C70.4325 16.2893 70.6193 16.2616 70.7477 16.139L71.5322 15.3881L72.5953 15.567C72.7691 15.596 72.9394 15.5132 73.0235 15.3554C73.1076 15.1977 73.0814 15.0101 72.9605 14.882L72.2194 14.0991L72.4055 13.0292ZM53.9844 20.9489L73.9906 31.614C74.781 32.0354 75.076 33.0203 74.6508 33.818C74.2255 34.6158 73.2433 34.9199 72.4529 34.4985L52.4467 23.8334C51.6562 23.412 51.3612 22.4271 51.7865 21.6293C52.2118 20.8316 53.194 20.5275 53.9844 20.9489Z" fill="black"/>
<circle cx="21.3491" cy="46.4379" r="1.28994" fill="white"/>
<circle cx="61.3373" cy="46.4379" r="1.28994" fill="white"/>
</svg>
